<?xml version="1.0" encoding="utf-8"?>
<!-- Generator: Adobe Illustrator 16.0.0, SVG Export Plug-In . SVG Version: 6.00 Build 0)  -->
<!DOCTYPE svg PUBLIC "-//W3C//DTD SVG 1.1//EN" "http://www.w3.org/Graphics/SVG/1.1/DTD/svg11.dtd">
<svg version="1.1" xmlns="http://www.w3.org/2000/svg" xmlns:xlink="http://www.w3.org/1999/xlink" x="0px" y="0px" width="720px"
	 height="360px" viewBox="0 0 720 360" enable-background="new 0 0 720 360" xml:space="preserve">
<g id="Layer_2" display="none">
	<rect display="inline" fill="#C5E2DC" width="720" height="360"/>
</g>
<g id="Layer_1">
	<g>
		<g>
			<g enable-background="new    ">
				<g enable-background="new    ">
					<defs>
						<path id="SVGID_1_" enable-background="new    " d="M641.673,195.427l-22.793-12.399c-6.35-9.082-12.508-18.269-18.688-27.487
							l22.793,12.399C629.165,177.158,635.323,186.345,641.673,195.427z"/>
					</defs>
					<clipPath id="SVGID_2_">
						<use xlink:href="#SVGID_1_"  overflow="visible"/>
					</clipPath>
					<g clip-path="url(#SVGID_2_)" enable-background="new    ">
						<path fill="#FF85C8" d="M641.673,195.427l-22.793-12.399c-6.35-9.082-12.508-18.269-18.688-27.487l22.793,12.399
							C629.165,177.158,635.323,186.345,641.673,195.427"/>
					</g>
				</g>
				<g enable-background="new    ">
					<defs>
						<path id="SVGID_3_" enable-background="new    " d="M612.761,112.66c7.598,4.133,15.195,8.266,22.793,12.399
							c2.049,1.115,3.367,3.361,3.305,7.172l-22.793-12.399C616.128,116.021,614.809,113.774,612.761,112.66z"/>
					</defs>
					<clipPath id="SVGID_4_">
						<use xlink:href="#SVGID_3_"  overflow="visible"/>
					</clipPath>
					<g clip-path="url(#SVGID_4_)" enable-background="new    ">
						<path fill="#FF85C8" d="M638.858,132.231l-22.793-12.399c0.062-3.812-1.257-6.058-3.305-7.172l22.793,12.399
							C637.603,126.174,638.921,128.42,638.858,132.231"/>
					</g>
				</g>
				<g enable-background="new    ">
					<defs>
						<path id="SVGID_5_" enable-background="new    " d="M609.402,154.877l-22.793-12.399c5.337-1.675,10.28-3.364,15.481-5.184
							c7.613-2.531,13.839-8.756,13.975-17.462l22.793,12.399c-0.136,8.707-6.361,14.932-13.975,17.462
							C619.684,151.513,614.739,153.202,609.402,154.877z"/>
					</defs>
					<clipPath id="SVGID_6_">
						<use xlink:href="#SVGID_5_"  overflow="visible"/>
					</clipPath>
					<g clip-path="url(#SVGID_6_)" enable-background="new    ">
						<path fill="#FF85C8" d="M609.402,154.877l-22.793-12.399c5.337-1.675,10.28-3.364,15.481-5.184
							c7.613-2.531,13.839-8.756,13.975-17.462l22.793,12.399c-0.136,8.707-6.361,14.932-13.975,17.462
							C619.684,151.513,614.739,153.202,609.402,154.877"/>
					</g>
				</g>
				<g>
					<path fill="#FFFEFF" d="M644.716,156.82c7.295,9.062,14.717,18.011,22.253,26.832c-8.393,4.213-16.744,8.118-25.296,11.774
						c-6.35-9.082-12.508-18.269-18.688-27.487c-4.567,1.609-9.167,3.121-13.614,4.515c-0.021,11.577-0.043,23.153-0.064,34.73
						c-8.013,2.38-15.136,4.392-23.148,6.271c0.06-31.705,0.118-63.401,0.177-95.105c14.238-3.54,28.275-7.786,42.212-12.831
						c3.712-1.409,7.499-2.454,11.123-2.963c12.02-1.689,22.265,2.512,22.153,18.884C661.734,134.92,655.375,148.157,644.716,156.82
						z M638.858,132.231c0.111-6.798-4.17-8.616-9.151-7.916c-1.552,0.218-3.171,0.68-4.746,1.312
						c-5.201,1.82-10.177,3.513-15.514,5.188c-0.015,8.023-0.03,16.038-0.045,24.062c5.337-1.675,10.281-3.364,15.481-5.184
						C632.497,147.163,638.723,140.938,638.858,132.231"/>
				</g>
				<g enable-background="new    ">
					<defs>
						<path id="SVGID_7_" enable-background="new    " d="M586.157,213.455l-22.793-12.399c0.059-31.705,0.118-63.4,0.177-95.105
							l22.793,12.399C586.275,150.054,586.217,181.75,586.157,213.455z"/>
					</defs>
					<clipPath id="SVGID_8_">
						<use xlink:href="#SVGID_7_"  overflow="visible"/>
					</clipPath>
					<g clip-path="url(#SVGID_8_)" enable-background="new    ">
						<path fill="#FF85C8" d="M586.157,213.455l-22.793-12.399c0.059-31.705,0.118-63.4,0.177-95.105l22.793,12.399
							C586.275,150.054,586.217,181.75,586.157,213.455"/>
					</g>
				</g>
				<g enable-background="new    ">
					<defs>
						<path id="SVGID_9_" enable-background="new    " d="M631.063,91.929c7.598,4.134,15.196,8.266,22.794,12.399
							c-3.883-2.112-8.861-2.521-14.188-1.772c-3.624,0.509-7.411,1.555-11.123,2.963c-13.937,5.044-27.974,9.291-42.212,12.831
							l-22.793-12.399c14.237-3.54,28.275-7.786,42.212-12.83c3.711-1.409,7.498-2.455,11.123-2.964
							C622.203,89.408,627.181,89.817,631.063,91.929z"/>
					</defs>
					<clipPath id="SVGID_10_">
						<use xlink:href="#SVGID_9_"  overflow="visible"/>
					</clipPath>
					<g clip-path="url(#SVGID_10_)" enable-background="new    ">
						<path fill="#FF85C8" d="M586.334,118.35l-22.793-12.399c14.237-3.54,28.275-7.786,42.212-12.83
							c3.711-1.409,7.498-2.455,11.123-2.964c5.327-0.749,10.305-0.34,14.188,1.772l22.794,12.399
							c-3.883-2.112-8.861-2.521-14.188-1.772c-3.624,0.509-7.411,1.555-11.123,2.963
							C614.609,110.564,600.572,114.811,586.334,118.35"/>
					</g>
				</g>
			</g>
			<g enable-background="new    ">
				<g enable-background="new    ">
					<defs>
						<path id="SVGID_11_" enable-background="new    " d="M524.774,204.327l-22.793-12.399c7.158-0.72,14.318-1.577,21.477-2.583
							c8.862-1.245,17.724-2.72,26.587-4.448l22.793,12.399c-8.863,1.729-17.725,3.202-26.586,4.448
							C539.093,202.75,531.933,203.607,524.774,204.327z"/>
					</defs>
					<clipPath id="SVGID_12_">
						<use xlink:href="#SVGID_11_"  overflow="visible"/>
					</clipPath>
					<g clip-path="url(#SVGID_12_)" enable-background="new    ">
						<path fill="#FF85C8" d="M524.774,204.327l-22.793-12.399c7.158-0.72,14.318-1.577,21.477-2.583
							c8.862-1.245,17.724-2.72,26.587-4.448l22.793,12.399c-8.863,1.729-17.725,3.202-26.586,4.448
							C539.093,202.75,531.933,203.607,524.774,204.327"/>
					</g>
				</g>
				<g enable-background="new    ">
					<defs>
						<path id="SVGID_13_" enable-background="new    " d="M524.844,166.864l-22.793-12.399c7.627-0.776,15.252-1.69,22.673-2.733
							c4.707-0.661,9.33-1.375,13.822-2.137l22.793,12.399c-4.492,0.762-9.115,1.476-13.822,2.137
							C540.096,165.175,532.471,166.089,524.844,166.864z"/>
					</defs>
					<clipPath id="SVGID_14_">
						<use xlink:href="#SVGID_13_"  overflow="visible"/>
					</clipPath>
					<g clip-path="url(#SVGID_14_)" enable-background="new    ">
						<path fill="#FF85C8" d="M524.844,166.864l-22.793-12.399c7.627-0.776,15.252-1.69,22.673-2.733
							c4.707-0.661,9.33-1.375,13.822-2.137l22.793,12.399c-4.492,0.762-9.115,1.476-13.822,2.137
							C540.096,165.175,532.471,166.089,524.844,166.864"/>
					</g>
				</g>
				<g>
					<path fill="#FFFEFF" d="M502.666,129.971c14.693-0.815,29.777-2.231,44.992-4.37c7.824-1.1,15.682-2.39,23.542-3.888
						c-0.012,6.389-0.023,12.778-0.035,19.168c-8.088,1.548-16.177,2.881-24.399,4.037c-7.164,1.007-14.427,1.878-21.886,2.641
						c-0.012,6.432-0.023,12.874-0.036,19.306c7.627-0.775,15.252-1.689,22.673-2.732c4.707-0.661,9.33-1.375,13.822-2.137
						c-0.011,6.009-0.022,12.009-0.033,18.01c-4.518,0.77-9.17,1.488-13.903,2.153c-7.396,1.04-14.992,1.949-22.592,2.716
						c-0.012,6.484-0.023,12.969-0.036,19.453c7.158-0.72,14.318-1.577,21.478-2.583c8.861-1.246,17.723-2.72,26.586-4.448
						c-0.012,6.39-0.023,12.779-0.036,19.168c-8.56,1.661-17.007,3.064-25.38,4.241c-15.137,2.127-30.035,3.518-44.933,4.369
						C502.548,193.37,502.606,161.675,502.666,129.971z"/>
				</g>
				<g enable-background="new    ">
					<defs>
						<path id="SVGID_15_" enable-background="new    " d="M502.666,129.971l-22.794-12.399c14.694-0.815,29.777-2.231,44.993-4.37
							c7.824-1.1,15.682-2.39,23.542-3.888l22.793,12.399c-7.86,1.498-15.718,2.788-23.542,3.888
							C532.443,127.739,517.359,129.156,502.666,129.971z"/>
					</defs>
					<clipPath id="SVGID_16_">
						<use xlink:href="#SVGID_15_"  overflow="visible"/>
					</clipPath>
					<g clip-path="url(#SVGID_16_)" enable-background="new    ">
						<path fill="#FF85C8" d="M502.666,129.971l-22.794-12.399c14.694-0.815,29.777-2.231,44.993-4.37
							c7.824-1.1,15.682-2.39,23.542-3.888l22.793,12.399c-7.86,1.498-15.718,2.788-23.542,3.888
							C532.443,127.739,517.359,129.156,502.666,129.971"/>
					</g>
				</g>
				<g enable-background="new    ">
					<defs>
						<path id="SVGID_17_" enable-background="new    " d="M502.489,225.074l-22.794-12.398c0.06-31.705,0.118-63.4,0.177-95.104
							l22.794,12.399C502.606,161.675,502.548,193.37,502.489,225.074z"/>
					</defs>
					<clipPath id="SVGID_18_">
						<use xlink:href="#SVGID_17_"  overflow="visible"/>
					</clipPath>
					<g clip-path="url(#SVGID_18_)" enable-background="new    ">
						<path fill="#FF85C8" d="M502.489,225.074l-22.794-12.398c0.06-31.705,0.118-63.4,0.177-95.104l22.794,12.399
							C502.606,161.675,502.548,193.37,502.489,225.074"/>
					</g>
				</g>
			</g>
			<g enable-background="new    ">
				<g enable-background="new    ">
					<defs>
						<path id="SVGID_19_" enable-background="new    " d="M437.532,225.69l-22.793-12.399c0.047-25.307,0.094-50.622,0.141-75.937
							l22.794,12.399C437.626,175.068,437.579,200.383,437.532,225.69z"/>
					</defs>
					<clipPath id="SVGID_20_">
						<use xlink:href="#SVGID_19_"  overflow="visible"/>
					</clipPath>
					<g clip-path="url(#SVGID_20_)" enable-background="new    ">
						<path fill="#FF85C8" d="M437.532,225.69l-22.793-12.399c0.047-25.307,0.094-50.622,0.141-75.937l22.794,12.399
							C437.626,175.068,437.579,200.383,437.532,225.69"/>
					</g>
				</g>
				<g>
					<path fill="#FFFEFF" d="M409.241,129.556c26.689,1.072,53.38,1.721,80.081,1.011c-0.012,6.389-0.023,12.77-0.035,19.159
						c-9.795,0.339-19.581,0.479-28.479,0.355c-0.047,25.306-0.094,50.622-0.141,75.937c-8.009,0.01-15.128-0.183-23.136-0.327
						c0.047-25.308,0.094-50.622,0.142-75.937c-9.786-0.241-19.572-0.551-28.469-1.03
						C409.218,142.334,409.229,135.945,409.241,129.556z"/>
				</g>
				<g enable-background="new    ">
					<defs>
						<path id="SVGID_21_" enable-background="new    " d="M409.241,129.556l-22.793-12.399c26.689,1.072,53.38,1.72,80.081,1.01
							l22.793,12.399C462.621,131.276,435.931,130.628,409.241,129.556z"/>
					</defs>
					<clipPath id="SVGID_22_">
						<use xlink:href="#SVGID_21_"  overflow="visible"/>
					</clipPath>
					<g clip-path="url(#SVGID_22_)" enable-background="new    ">
						<path fill="#FF85C8" d="M409.241,129.556l-22.793-12.399c26.689,1.072,53.38,1.72,80.081,1.01l22.793,12.399
							C462.621,131.276,435.931,130.628,409.241,129.556"/>
					</g>
				</g>
				<g enable-background="new    ">
					<defs>
						<path id="SVGID_23_" enable-background="new    " d="M409.205,148.724l-22.793-12.399c0.012-6.39,0.023-12.779,0.036-19.168
							l22.793,12.399C409.229,135.945,409.218,142.334,409.205,148.724z"/>
					</defs>
					<clipPath id="SVGID_24_">
						<use xlink:href="#SVGID_23_"  overflow="visible"/>
					</clipPath>
					<g clip-path="url(#SVGID_24_)" enable-background="new    ">
						<path fill="#FF85C8" d="M409.205,148.724l-22.793-12.399c0.012-6.39,0.023-12.779,0.036-19.168l22.793,12.399
							C409.229,135.945,409.218,142.334,409.205,148.724"/>
					</g>
				</g>
			</g>
			<g enable-background="new    ">
				<g enable-background="new    ">
					<defs>
						<path id="SVGID_25_" enable-background="new    " d="M350.424,222.157l-22.793-12.399c0.039-25.313,0.23-50.64,0.277-75.955
							l22.793,12.399C350.654,171.517,350.463,196.844,350.424,222.157z"/>
					</defs>
					<clipPath id="SVGID_26_">
						<use xlink:href="#SVGID_25_"  overflow="visible"/>
					</clipPath>
					<g clip-path="url(#SVGID_26_)" enable-background="new    ">
						<path fill="#FF85C8" d="M350.424,222.157l-22.793-12.399c0.039-25.313,0.23-50.64,0.277-75.955l22.793,12.399
							C350.654,171.517,350.463,196.844,350.424,222.157"/>
					</g>
				</g>
				<g>
					<path fill="#FFFEFF" d="M322.045,126.157c26.69,0.622,53.38,1.988,80.077,3.18c-0.012,6.389-0.023,12.779-0.035,19.168
						c-9.794-0.387-18.69-0.926-28.476-1.323c-0.047,25.306-0.094,50.622-0.141,75.936c-8.008-0.3-15.391-0.671-23.046-0.962
						c0.039-25.313,0.23-50.64,0.277-75.955c-9.601-0.354-19.795-0.572-28.692-0.886
						C322.021,138.927,322.033,132.546,322.045,126.157z"/>
				</g>
				<g enable-background="new    ">
					<defs>
						<path id="SVGID_27_" enable-background="new    " d="M322.045,126.157l-22.793-12.399c26.691,0.622,53.38,1.988,80.078,3.181
							l22.793,12.399C375.425,128.146,348.735,126.779,322.045,126.157z"/>
					</defs>
					<clipPath id="SVGID_28_">
						<use xlink:href="#SVGID_27_"  overflow="visible"/>
					</clipPath>
					<g clip-path="url(#SVGID_28_)" enable-background="new    ">
						<path fill="#FF85C8" d="M322.045,126.157l-22.793-12.399c26.691,0.622,53.38,1.988,80.078,3.181l22.793,12.399
							C375.425,128.146,348.735,126.779,322.045,126.157"/>
					</g>
				</g>
				<g enable-background="new    ">
					<defs>
						<path id="SVGID_29_" enable-background="new    " d="M322.009,145.316l-22.793-12.399c0.012-6.389,0.024-12.77,0.036-19.159
							l22.793,12.399C322.033,132.546,322.021,138.927,322.009,145.316z"/>
					</defs>
					<clipPath id="SVGID_30_">
						<use xlink:href="#SVGID_29_"  overflow="visible"/>
					</clipPath>
					<g clip-path="url(#SVGID_30_)" enable-background="new    ">
						<path fill="#FF85C8" d="M322.009,145.316l-22.793-12.399c0.012-6.389,0.024-12.77,0.036-19.159l22.793,12.399
							C322.033,132.546,322.021,138.927,322.009,145.316"/>
					</g>
				</g>
			</g>
			<g enable-background="new    ">
				<g>
					<path fill="#FFFEFF" d="M285.711,126.155c7.665-0.161,14.976-0.143,22.984-0.136c-0.059,31.696-0.118,63.391-0.177,95.096
						c-8.008,0.002-15.344-0.005-23.008,0.139C285.577,189.558,285.652,157.851,285.711,126.155z"/>
				</g>
				<g enable-background="new    ">
					<defs>
						<path id="SVGID_31_" enable-background="new    " d="M285.711,126.155l-22.793-12.399c7.665-0.161,14.976-0.143,22.984-0.136
							l22.793,12.399C300.687,126.012,293.375,125.994,285.711,126.155z"/>
					</defs>
					<clipPath id="SVGID_32_">
						<use xlink:href="#SVGID_31_"  overflow="visible"/>
					</clipPath>
					<g clip-path="url(#SVGID_32_)" enable-background="new    ">
						<path fill="#FF85C8" d="M285.711,126.155l-22.793-12.399c7.665-0.161,14.976-0.143,22.984-0.136l22.793,12.399
							C300.687,126.012,293.375,125.994,285.711,126.155"/>
					</g>
				</g>
				<g enable-background="new    ">
					<defs>
						<path id="SVGID_33_" enable-background="new    " d="M285.51,221.254l-22.793-12.398c0.066-31.697,0.142-63.404,0.2-95.1
							l22.793,12.399C285.652,157.851,285.577,189.558,285.51,221.254z"/>
					</defs>
					<clipPath id="SVGID_34_">
						<use xlink:href="#SVGID_33_"  overflow="visible"/>
					</clipPath>
					<g clip-path="url(#SVGID_34_)" enable-background="new    ">
						<path fill="#FF85C8" d="M285.51,221.254l-22.793-12.398c0.066-31.697,0.142-63.404,0.2-95.1l22.793,12.399
							C285.652,157.851,285.577,189.558,285.51,221.254"/>
					</g>
				</g>
			</g>
			<g enable-background="new    ">
				<g enable-background="new    ">
					<defs>
						<path id="SVGID_35_" enable-background="new    " d="M248.597,223.037l-22.793-12.399
							c-6.21-10.995-12.485-21.955-18.775-32.887l22.793,12.399C236.112,201.082,242.387,212.041,248.597,223.037z"/>
					</defs>
					<clipPath id="SVGID_36_">
						<use xlink:href="#SVGID_35_"  overflow="visible"/>
					</clipPath>
					<g clip-path="url(#SVGID_36_)" enable-background="new    ">
						<path fill="#FF85C8" d="M248.597,223.037l-22.793-12.399c-6.21-10.995-12.485-21.955-18.775-32.887l22.793,12.399
							C236.112,201.082,242.387,212.041,248.597,223.037"/>
					</g>
				</g>
				<g enable-background="new    ">
					<defs>
						<path id="SVGID_37_" enable-background="new    " d="M231.721,172.354l-22.793-12.399c0.447-0.034,0.892-0.083,1.333-0.145
							l22.793,12.399C232.613,172.271,232.167,172.319,231.721,172.354z"/>
					</defs>
					<clipPath id="SVGID_38_">
						<use xlink:href="#SVGID_37_"  overflow="visible"/>
					</clipPath>
					<g clip-path="url(#SVGID_38_)" enable-background="new    ">
						<path fill="#FF85C8" d="M231.721,172.354l-22.793-12.399c0.447-0.034,0.892-0.083,1.333-0.145l22.793,12.399
							C232.613,172.271,232.167,172.319,231.721,172.354"/>
					</g>
				</g>
				<g enable-background="new    ">
					<defs>
						<path id="SVGID_39_" enable-background="new    " d="M218.026,137.135c7.598,4.133,15.195,8.267,22.793,12.399
							c2.984,1.624,4.957,4.659,4.966,9.33c0.007,8.168-5.988,12.397-12.73,13.345l-22.793-12.399
							c6.743-0.948,12.738-5.177,12.73-13.345C222.983,141.793,221.011,138.758,218.026,137.135z"/>
					</defs>
					<clipPath id="SVGID_40_">
						<use xlink:href="#SVGID_39_"  overflow="visible"/>
					</clipPath>
					<g clip-path="url(#SVGID_40_)" enable-background="new    ">
						<path fill="#FF85C8" d="M233.055,172.209l-22.793-12.399c6.743-0.948,12.738-5.177,12.73-13.345
							c-0.009-4.671-1.981-7.707-4.965-9.33l22.793,12.399c2.984,1.624,4.957,4.659,4.966,9.33
							C245.792,167.032,239.797,171.262,233.055,172.209"/>
					</g>
				</g>
				<g enable-background="new    ">
					<defs>
						<path id="SVGID_41_" enable-background="new    " d="M216.061,174.381l-22.793-12.399c5.343-0.751,10.454-1.409,15.66-2.028
							l22.793,12.399C226.515,172.973,221.404,173.631,216.061,174.381z"/>
					</defs>
					<clipPath id="SVGID_42_">
						<use xlink:href="#SVGID_41_"  overflow="visible"/>
					</clipPath>
					<g clip-path="url(#SVGID_42_)" enable-background="new    ">
						<path fill="#FF85C8" d="M216.061,174.381l-22.793-12.399c5.343-0.751,10.454-1.409,15.66-2.028l22.793,12.399
							C226.515,172.973,221.404,173.631,216.061,174.381"/>
					</g>
				</g>
				<g enable-background="new    ">
					<defs>
						<path id="SVGID_43_" enable-background="new    " d="M232.968,120.094c7.598,4.133,15.195,8.266,22.793,12.399
							c-5.624-3.059-12.611-4.178-20.06-3.364c-5.231,0.581-10.455,1.234-15.676,1.968c-8.793,1.236-17.582,2.698-26.388,4.418
							l-22.793-12.399c8.807-1.72,17.595-3.183,26.388-4.418c5.221-0.734,10.444-1.388,15.676-1.968
							C220.357,115.917,227.344,117.035,232.968,120.094z"/>
					</defs>
					<clipPath id="SVGID_44_">
						<use xlink:href="#SVGID_43_"  overflow="visible"/>
					</clipPath>
					<g clip-path="url(#SVGID_44_)" enable-background="new    ">
						<path fill="#FF85C8" d="M193.638,135.516l-22.793-12.399c8.807-1.72,17.595-3.183,26.388-4.418
							c5.221-0.734,10.444-1.388,15.676-1.968c7.449-0.813,14.436,0.305,20.06,3.364l22.793,12.399
							c-5.624-3.059-12.611-4.178-20.06-3.364c-5.231,0.581-10.455,1.234-15.676,1.968
							C211.232,132.333,202.444,133.796,193.638,135.516"/>
					</g>
				</g>
				<g enable-background="new    ">
					<defs>
						<path id="SVGID_45_" enable-background="new    " d="M193.445,230.614l-22.793-12.399c0.059-31.695,0.134-63.402,0.192-95.098
							l22.793,12.399C193.579,167.212,193.504,198.919,193.445,230.614z"/>
					</defs>
					<clipPath id="SVGID_46_">
						<use xlink:href="#SVGID_45_"  overflow="visible"/>
					</clipPath>
					<g clip-path="url(#SVGID_46_)" enable-background="new    ">
						<path fill="#FF85C8" d="M193.445,230.614l-22.793-12.399c0.059-31.695,0.134-63.402,0.192-95.098l22.793,12.399
							C193.579,167.212,193.504,198.919,193.445,230.614"/>
					</g>
				</g>
				<g>
					<path fill="#FFFEFF" d="M251.757,185.477c7.458,11.995,14.859,24.033,22.22,36.111c-8.449,0.34-16.915,0.821-25.381,1.449
						c-6.21-10.996-12.484-21.955-18.774-32.888c-3.723,0.433-7.562,0.926-11.26,1.446c-0.853,0.119-1.699,0.24-2.534,0.363
						c-0.021,11.576-0.043,23.153-0.064,34.729c-7.113,1.044-15.004,2.403-22.519,3.926c0.059-31.695,0.134-63.402,0.193-95.098
						c8.807-1.72,17.595-3.183,26.388-4.418c5.221-0.734,10.444-1.388,15.676-1.968c17.926-1.958,33.181,7.273,33.191,27.827
						C268.894,169.187,262.955,180.411,251.757,185.477z M233.055,172.209c6.743-0.948,12.738-5.177,12.73-13.345
						c-0.017-8.544-6.601-11.614-13.933-10.584c-0.032,0.004-0.063,0.009-0.095,0.014c-5.207,0.619-10.309,1.276-15.652,2.027
						c-0.015,8.023-0.03,16.047-0.045,24.061c5.343-0.75,10.454-1.409,15.66-2.028C232.167,172.319,232.613,172.271,233.055,172.209
						"/>
				</g>
			</g>
			<g enable-background="new    ">
				<g enable-background="new    ">
					<defs>
						<path id="SVGID_47_" enable-background="new    " d="M159.889,205.433l-22.793-12.399c6.975,0.101,13.902,0.354,20.82,0.765
							l22.793,12.399C173.791,205.786,166.864,205.533,159.889,205.433z"/>
					</defs>
					<clipPath id="SVGID_48_">
						<use xlink:href="#SVGID_47_"  overflow="visible"/>
					</clipPath>
					<g clip-path="url(#SVGID_48_)" enable-background="new    ">
						<path fill="#FF85C8" d="M159.889,205.433l-22.793-12.399c6.975,0.101,13.902,0.354,20.82,0.765l22.793,12.399
							C173.791,205.786,166.864,205.533,159.889,205.433"/>
					</g>
				</g>
				<g enable-background="new    ">
					<defs>
						<path id="SVGID_49_" enable-background="new    " d="M130.834,226.559c-7.598-4.133-15.195-8.266-22.793-12.398
							c2.059,1.119,4.542,1.582,7.501,1.166c1.257-0.177,2.6-0.512,4.032-1.022c9.24-3.295,15.676-10.898,17.521-21.271
							l22.793,12.399c-1.845,10.372-8.282,17.976-17.522,21.271c-1.432,0.511-2.774,0.846-4.032,1.022
							C135.376,228.142,132.893,227.679,130.834,226.559z"/>
					</defs>
					<clipPath id="SVGID_50_">
						<use xlink:href="#SVGID_49_"  overflow="visible"/>
					</clipPath>
					<g clip-path="url(#SVGID_50_)" enable-background="new    ">
						<path fill="#FF85C8" d="M130.834,226.559l-22.793-12.398c2.059,1.119,4.542,1.582,7.501,1.166
							c1.257-0.177,2.6-0.512,4.032-1.022c9.24-3.295,15.676-10.898,17.521-21.271l22.793,12.399
							c-1.845,10.372-8.282,17.976-17.522,21.271c-1.432,0.511-2.774,0.846-4.032,1.022
							C135.376,228.142,132.893,227.679,130.834,226.559"/>
					</g>
				</g>
				<g enable-background="new    ">
					<defs>
						<path id="SVGID_51_" enable-background="new    " d="M130.542,155.154c7.598,4.133,15.195,8.266,22.793,12.399
							c3.109,1.692,5.232,5.16,6.204,10.044l-22.793-12.399C135.774,160.313,133.652,156.845,130.542,155.154z"/>
					</defs>
					<clipPath id="SVGID_52_">
						<use xlink:href="#SVGID_51_"  overflow="visible"/>
					</clipPath>
					<g clip-path="url(#SVGID_52_)" enable-background="new    ">
						<path fill="#FF85C8" d="M159.54,177.597l-22.793-12.399c-0.973-4.885-3.095-8.353-6.205-10.044l22.793,12.399
							C156.445,169.245,158.568,172.712,159.54,177.597"/>
					</g>
				</g>
				<g enable-background="new    ">
					<defs>
						<path id="SVGID_53_" enable-background="new    " d="M146.172,136.266c7.598,4.133,15.195,8.266,22.793,12.399
							c-5.12-2.785-11.417-3.5-17.903-2.588l-22.793-12.399C134.754,132.766,141.052,133.48,146.172,136.266z"/>
					</defs>
					<clipPath id="SVGID_54_">
						<use xlink:href="#SVGID_53_"  overflow="visible"/>
					</clipPath>
					<g clip-path="url(#SVGID_54_)" enable-background="new    ">
						<path fill="#FF85C8" d="M151.062,146.077l-22.793-12.399c6.485-0.912,12.783-0.197,17.903,2.588l22.793,12.399
							C163.845,145.88,157.547,145.166,151.062,146.077"/>
					</g>
				</g>
				<g enable-background="new    ">
					<defs>
						<path id="SVGID_55_" enable-background="new    " d="M112.717,246.285c-7.598-4.133-15.195-8.267-22.793-12.399
							c-8.715-4.741-13.897-14.925-13.839-30.325c0.109-28.591,16.292-57.989,43.234-67.644c2.958-1.06,5.974-1.821,8.95-2.239
							l22.793,12.399c-2.975,0.418-5.991,1.179-8.95,2.239c-26.941,9.655-43.125,39.054-43.234,67.645
							C98.819,231.359,104.002,241.544,112.717,246.285z"/>
					</defs>
					<clipPath id="SVGID_56_">
						<use xlink:href="#SVGID_55_"  overflow="visible"/>
					</clipPath>
					<g clip-path="url(#SVGID_56_)" enable-background="new    ">
						<path fill="#FF85C8" d="M112.717,246.285l-22.793-12.399c-8.715-4.741-13.897-14.925-13.839-30.325
							c0.109-28.591,16.292-57.989,43.234-67.644c2.958-1.06,5.974-1.821,8.95-2.239l22.793,12.399
							c-2.975,0.418-5.991,1.179-8.95,2.239c-26.941,9.655-43.125,39.054-43.234,67.645
							C98.819,231.359,104.002,241.544,112.717,246.285"/>
					</g>
				</g>
				<g>
					<path fill="#FFFEFF" d="M151.062,146.077c12.879-1.81,25.02,2.792,28.662,17.292c-6.8,4.595-13.528,9.344-20.184,14.229
						c-1.562-7.85-6.095-12.04-12.919-11.081c-1.18,0.165-2.429,0.485-3.743,0.967c-14.761,5.411-20.423,22.812-20.491,37.472
						c-0.052,12.234,4.204,24.421,15.949,22.771c1.257-0.177,2.6-0.512,4.032-1.022c9.24-3.295,15.677-10.898,17.522-21.271
						c6.975,0.101,13.902,0.354,20.82,0.765c-5.036,20.476-20.829,33.707-38.643,40.058c-3.737,1.331-7.318,2.231-10.706,2.708
						c-19.473,2.736-32.576-8.567-32.483-33.003c0.109-28.591,16.293-57.989,43.234-67.645
						C145.071,147.256,148.087,146.495,151.062,146.077z"/>
				</g>
			</g>
		</g>
	</g>
</g>
</svg>
